<?xml version="1.0" standalone="no"?>
<!DOCTYPE svg PUBLIC "-//W3C//DTD SVG 1.1//EN"
   "http://www.w3.org/Graphics/SVG/1.1/DTD/svg11.dtd">
<svg width="510" height="118" version="1.1"
   xmlns="http://www.w3.org/2000/svg">
   <desc>professional barcode
   </desc>

   <g id="barcode" fill="#000000">
      <rect x="0" y="0" width="510" height="118" fill="#FFFFFF" />
      <rect x="0.00" y="0.00" width="4.00" height="100.00" />
      <rect x="6.00" y="0.00" width="2.00" height="100.00" />
      <rect x="12.00" y="0.00" width="2.00" height="100.00" />
      <rect x="22.00" y="0.00" width="2.00" height="100.00" />
      <rect x="26.00" y="0.00" width="2.00" height="100.00" />
      <rect x="32.00" y="0.00" width="8.00" height="100.00" />
      <rect x="44.00" y="0.00" width="2.00" height="100.00" />
      <rect x="50.00" y="0.00" width="2.00" height="100.00" />
      <rect x="56.00" y="0.00" width="8.00" height="100.00" />
      <rect x="66.00" y="0.00" width="2.00" height="100.00" />
      <rect x="74.00" y="0.00" width="8.00" height="100.00" />
      <rect x="84.00" y="0.00" width="2.00" height="100.00" />
      <rect x="88.00" y="0.00" width="2.00" height="100.00" />
      <rect x="92.00" y="0.00" width="4.00" height="100.00" />
      <rect x="104.00" y="0.00" width="2.00" height="100.00" />
      <rect x="110.00" y="0.00" width="2.00" height="100.00" />
      <rect x="114.00" y="0.00" width="4.00" height="100.00" />
      <rect x="122.00" y="0.00" width="2.00" height="100.00" />
      <rect x="132.00" y="0.00" width="2.00" height="100.00" />
      <rect x="136.00" y="0.00" width="8.00" height="100.00" />
      <rect x="148.00" y="0.00" width="2.00" height="100.00" />
      <rect x="154.00" y="0.00" width="2.00" height="100.00" />
      <rect x="158.00" y="0.00" width="8.00" height="100.00" />
      <rect x="170.00" y="0.00" width="2.00" height="100.00" />
      <rect x="176.00" y="0.00" width="2.00" height="100.00" />
      <rect x="186.00" y="0.00" width="4.00" height="100.00" />
      <rect x="192.00" y="0.00" width="2.00" height="100.00" />
      <rect x="198.00" y="0.00" width="2.00" height="100.00" />
      <rect x="206.00" y="0.00" width="8.00" height="100.00" />
      <rect x="216.00" y="0.00" width="2.00" height="100.00" />
      <rect x="220.00" y="0.00" width="4.00" height="100.00" />
      <rect x="232.00" y="0.00" width="2.00" height="100.00" />
      <rect x="236.00" y="0.00" width="2.00" height="100.00" />
      <rect x="242.00" y="0.00" width="2.00" height="100.00" />
      <rect x="248.00" y="0.00" width="2.00" height="100.00" />
      <rect x="252.00" y="0.00" width="4.00" height="100.00" />
      <rect x="264.00" y="0.00" width="4.00" height="100.00" />
      <rect x="272.00" y="0.00" width="2.00" height="100.00" />
      <rect x="276.00" y="0.00" width="2.00" height="100.00" />
      <rect x="286.00" y="0.00" width="4.00" height="100.00" />
      <rect x="292.00" y="0.00" width="4.00" height="100.00" />
      <rect x="300.00" y="0.00" width="4.00" height="100.00" />
      <rect x="308.00" y="0.00" width="2.00" height="100.00" />
      <rect x="314.00" y="0.00" width="2.00" height="100.00" />
      <rect x="324.00" y="0.00" width="4.00" height="100.00" />
      <rect x="330.00" y="0.00" width="2.00" height="100.00" />
      <rect x="336.00" y="0.00" width="2.00" height="100.00" />
      <rect x="340.00" y="0.00" width="4.00" height="100.00" />
      <rect x="352.00" y="0.00" width="2.00" height="100.00" />
      <rect x="358.00" y="0.00" width="2.00" height="100.00" />
      <rect x="364.00" y="0.00" width="8.00" height="100.00" />
      <rect x="374.00" y="0.00" width="2.00" height="100.00" />
      <rect x="384.00" y="0.00" width="2.00" height="100.00" />
      <rect x="388.00" y="0.00" width="4.00" height="100.00" />
      <rect x="396.00" y="0.00" width="2.00" height="100.00" />
      <rect x="404.00" y="0.00" width="8.00" height="100.00" />
      <rect x="414.00" y="0.00" width="2.00" height="100.00" />
      <rect x="418.00" y="0.00" width="2.00" height="100.00" />
      <rect x="428.00" y="0.00" width="2.00" height="100.00" />
      <rect x="434.00" y="0.00" width="4.00" height="100.00" />
      <rect x="440.00" y="0.00" width="2.00" height="100.00" />
      <rect x="444.00" y="0.00" width="4.00" height="100.00" />
      <rect x="452.00" y="0.00" width="2.00" height="100.00" />
      <rect x="462.00" y="0.00" width="2.00" height="100.00" />
      <rect x="466.00" y="0.00" width="6.00" height="100.00" />
      <rect x="476.00" y="0.00" width="4.00" height="100.00" />
      <rect x="484.00" y="0.00" width="4.00" height="100.00" />
      <rect x="494.00" y="0.00" width="6.00" height="100.00" />
      <rect x="502.00" y="0.00" width="2.00" height="100.00" />
      <rect x="506.00" y="0.00" width="4.00" height="100.00" />
      <text x="255.00" y="118.00" text-anchor="middle"
         font-family="Helvetica" font-size="16.0" fill="#000000" >
         professional barcode
      </text>
   </g>
</svg>
