<?xml version="1.0" encoding="UTF-8"?>
<svg id="Layer_1" data-name="Layer 1" xmlns="http://www.w3.org/2000/svg" viewBox="0 0 556 462">
  <defs>
    <style>
      .cls-1 {
        fill: blue;
      }
    </style>
  </defs>
  <rect class="cls-1" x=".5" y=".5" width="555" height="461" rx="32.18" ry="32.18"/>
  <path d="m523.32,1c17.47,0,31.68,14.21,31.68,31.68v396.65c0,17.47-14.21,31.68-31.68,31.68H32.68c-17.47,0-31.68-14.21-31.68-31.68V32.68C1,15.21,15.21,1,32.68,1h490.65m0-1H32.68C14.63,0,0,14.63,0,32.68v396.65c0,18.05,14.63,32.68,32.68,32.68h490.65c18.05,0,32.68-14.63,32.68-32.68V32.68c0-18.05-14.63-32.68-32.68-32.68h0Z"/>
</svg>